/vscmnt/brussel_pixiu_data/_data_brussel/112/vsc11236/PredSimResults/SUBJ07mtu3D/worker1.mot
version=1
nRows=4
nColumns=50
inDegrees=yes
endheader
                time	         pelvis_tilt	         pelvis_list	     pelvis_rotation	           pelvis_tx	           pelvis_ty	           pelvis_tz	       hip_flexion_r	     hip_adduction_r	      hip_rotation_r	        knee_angle_r	       ankle_angle_r	         mtp_angle_r	       hip_flexion_l	     hip_adduction_l	      hip_rotation_l	        knee_angle_l	       ankle_angle_l	         mtp_angle_l	    lumbar_extension	      lumbar_bending	     lumbar_rotation	 ercspn_r/activation	 intobl_r/activation	 extobl_r/activation	    abd_r/activation	    add_r/activation	hamstrings_r/activation	bifemsh_r/activation	glut_max_r/activation	iliopsoas_r/activation	rect_fem_r/activation	  vasti_r/activation	gastroc_r/activation	 soleus_r/activation	tib_ant_r/activation	 ercspn_l/activation	 intobl_l/activation	 extobl_l/activation	    abd_l/activation	    add_l/activation	hamstrings_l/activation	bifemsh_l/activation	glut_max_l/activation	iliopsoas_l/activation	rect_fem_l/activation	  vasti_l/activation	gastroc_l/activation	 soleus_l/activation	tib_ant_l/activation	
          1.07242310	         -5.75524467	         -0.28579019	          7.71293913	          1.30835618	          0.84666003	         -0.01071151	         32.79700517	         -1.91136743	         -4.31310495	        -10.01638446	          4.26985304	          0.26339036	        -12.72971231	          0.53508372	          6.06209102	         -8.43828673	          9.74326630	         25.08900399	         -8.62116805	         -1.57868031	         -1.62414466	          0.10775030	          0.15424568	          0.02524937	          0.03719835	          0.19068493	          0.05936148	          0.10524974	          0.09760205	          0.05891134	          0.02183168	          0.01131586	          0.01257370	          0.01000008	          0.35191543	          0.10363141	          0.01000003	          0.01000006	          0.05297375	          0.07219229	          0.02593068	          0.13491243	          0.03726720	          0.40931637	          0.01000355	          0.01000020	          0.09790491	          0.25967718	          0.01569908	
          1.08314733	         -5.79085494	         -0.20217475	          7.58396255	          1.32386607	          0.84517263	         -0.01066211	         32.38978301	         -1.65698021	         -3.39732880	        -11.10821301	          4.10102529	          0.24358507	        -12.87410253	          0.64637478	          5.57518876	        -10.08293864	          8.99036041	         26.80693178	         -8.42011380	         -1.17001184	         -1.68450234	          0.09141177	          0.18697070	          0.02142070	          0.06393417	          0.17624051	          0.05621502	          0.08929048	          0.12363973	          0.04997836	          0.01852144	          0.01000002	          0.01389426	          0.01215286	          0.37762799	          0.12498646	          0.01000002	          0.01000013	          0.04494111	          0.11028225	          0.02202127	          0.11445509	          0.03161621	          0.37909064	          0.01000027	          0.01000005	          0.08305915	          0.22030128	          0.01331856	
          1.09387156	         -5.81729441	         -0.13119213	          7.39692127	          1.33945441	          0.84395080	         -0.01052441	         31.94481779	         -1.40509856	         -2.54489744	        -12.12980733	          3.77087528	          0.23918137	        -12.80262547	          0.76614757	          5.03800782	        -12.13601906	          8.12179583	         28.48341379	         -8.21753354	         -0.73735439	         -1.73675632	          0.10512741	          0.15861954	          0.01817259	          0.12117429	          0.19294167	          0.05277638	          0.07575107	          0.14959478	          0.04239993	          0.01571317	          0.01000020	          0.01178743	          0.01031008	          0.40071777	          0.15036211	          0.01000001	          0.01000008	          0.03812649	          0.09738812	          0.03559192	          0.09709979	          0.02682210	          0.37223761	          0.01000035	          0.01000191	          0.07046453	          0.18689602	          0.01129901	
          1.10459579	         -5.83472053	         -0.07585484	          7.15451939	          1.35494570	          0.84311994	         -0.01028485	         31.55446494	         -1.13486995	         -1.79485778	        -13.22644937	          3.42107421	          0.22392681	        -12.44412458	          0.88941512	          4.45196861	        -14.69083648	          7.10204686	         30.04745979	         -8.03193059	         -0.28027227	         -1.78167498	          0.10963513	          0.13456738	          0.01541701	          0.15409472	          0.20154870	          0.05414187	          0.06426471	          0.15473100	          0.03597065	          0.01333080	          0.06010846	          0.01000020	          0.01000008	          0.42490457	          0.17275791	          0.01000003	          0.01000009	          0.03234520	          0.13285310	          0.03264482	          0.08237616	          0.02275495	          0.34452020	          0.01000023	          0.01000017	          0.05977968	          0.15855615	          0.01000000	
